<?xml version="1.0" encoding="utf-8"?>
<!-- Generator: Adobe Illustrator 26.3.1, SVG Export Plug-In . SVG Version: 6.00 Build 0)  -->
<svg version="1.1" id="Layer_1" xmlns="http://www.w3.org/2000/svg" xmlns:xlink="http://www.w3.org/1999/xlink" x="0px" y="0px"
	 viewBox="0 0 1920 1080" style="enable-background:new 0 0 1920 1080;" xml:space="preserve" width="100%">
<style type="text/css">
	.st0{fill:#055C0E;}
	.st1{fill:#FFFFFF;}
	.st2{fill:#FBFAEB;stroke:#FBFAEB;stroke-miterlimit:10;}
</style>
<path class="st0" d="M1231,0.8c0,172.9,0,345.7,0,518.6c-4.7-0.1-9.3-0.4-14-0.4c-162.9,0-325.8,0-488.7,0c-5.4,0-10.8,0-17.7,0
	c0-6.8,0-11.8,0-16.8c0-161.5,0.2-323-0.4-484.5c-0.1-14.7,4.2-17.7,18-17.6c133.5,0.5,267,0.3,400.5,0.3
	C1162.9,0.3,1197,0.6,1231,0.8z M1070,383c-6.2,0.9-10.2,1.5-14.3,2c-31.9,4-63.7,8-95.6,12.1c-11.6,1.5-16.6-2-16.3-15.1
	c2-98.3-3.4-196.8,4.2-296c-17,0-34.9,0-51.7,0c5.5,111.1,5.5,221.4,0,332c-0.1-0.1,0.7,0.6,1.6,0.6c52.7,0.6,105.5,1.3,158.2,1.6
	c2.8,0,7.6-2.6,8.2-4.8C1066.8,405.2,1068.1,394.7,1070,383z"/>
<path class="st0" d="M667.6,1080c-172.6,0-345.3,0-518.6,0c0-172.9,0-345.7,0-518.6c3.3-0.2,6.5-0.5,9.8-0.5
	c165.8,0,331.6,0,497.5,0c4,0,8,0.8,12.4,1.3c0.3,5.3,0.6,9.4,0.6,13.6c0,163.5,0,327-0.1,490.5
	C669.3,1070.8,668.2,1075.4,667.6,1080z M470.7,704c1.5-0.2,3.1-0.3,4.6-0.5c0.7-13.3,1.8-26.5,1.6-39.8c-0.1-2.6-4.9-6.6-8.3-7.6
	c-16.5-4.5-33.1-10.5-50-11.8c-55-4.2-96.3,43.7-85.9,97.8c4.3,22.8,15.6,42.1,31.3,58.4c18.5,19.1,39.6,35.9,56.8,55.9
	c12.8,14.8,24.9,32.1,31,50.4c11.2,33.8-11.9,61.6-47.5,61.9c-26.9,0.2-50.4-16-61.8-42.7c-1.8-4.2-3.9-8.3-5.8-12.4
	c-1.6,0.2-3.1,0.5-4.7,0.7c-1.5,14-2.3,28.1-4.6,41.9c-1.4,8.5,1.4,12.9,8.6,16.6c25,12.9,51.4,19.5,79.6,17.8
	c42.2-2.5,72.3-30.2,79.4-71.5c5.7-33.4-9-59.4-29.7-82.4c-19-21.1-40.8-39.7-60.1-60.6c-11.6-12.6-22.8-26.3-30.6-41.4
	c-8.9-17.4-8.3-36.6,4.2-53c11.4-14.9,28.1-17.9,45.5-15.5c17,2.4,30.3,11.5,39.5,26.3C466.1,696.4,468.4,700.2,470.7,704z"/>
<path class="st0" d="M1231,561.4c0,171.9,0,343.9,0,515.8c-2.8,0.2-5.6,0.5-8.4,0.5c-166.7,0-333.4,0.1-500.1,0
	c-3.5,0-7.1-0.9-11.2-1.4c-0.3-5-0.7-9.1-0.7-13.2c0-163,0.1-325.9-0.3-488.9c0-11.9,3.8-14.7,15.2-14.7
	c163.9,0.3,327.8,0.2,491.7,0.3C1221.9,559.7,1226.5,560.8,1231,561.4z M836.8,633.2c0,123.4,0,245.5,0,369.2c16.3,0,31.6,0,46.9,0
	c72.3,0,144.7-0.3,217.1,0.3c13.1,0.1,16.8-4.1,16.4-16.7c-0.6-19.1,0.6-38.2,1-57.4c1-57.4,1.9-114.8,2.7-172.1c0.3-18,0-36,0-55.5
	c-35.9,0-70.2,0-105.9,0c0-23.3,0-45.1,0-67.8C955.1,633.2,896.6,633.2,836.8,633.2z"/>
<path class="st1" d="M1070,383c-2,11.7-3.3,22.2-5.8,32.4c-0.5,2.2-5.4,4.8-8.2,4.8c-52.7-0.3-105.5-1-158.2-1.6
	c-0.8,0-1.7-0.7-1.6-0.6c5.5-110.6,5.5-220.9,0-332c16.8,0,34.6,0,51.7,0c-7.6,99.2-2.2,197.7-4.2,296c-0.3,13,4.7,16.5,16.3,15.1
	c31.8-4.1,63.7-8,95.6-12.1C1059.8,384.5,1063.8,383.9,1070,383z"/>
<path class="st1" d="M470.7,704c-2.3-3.8-4.7-7.7-7-11.5c-9.2-14.8-22.5-23.9-39.5-26.3c-17.4-2.4-34.1,0.5-45.5,15.5
	c-12.4,16.4-13.1,35.7-4.2,53c7.8,15.1,18.9,28.8,30.6,41.4c19.3,20.9,41.1,39.5,60.1,60.6c20.7,23,35.5,48.9,29.7,82.4
	c-7.1,41.3-37.1,69-79.4,71.5c-28.3,1.7-54.6-4.9-79.6-17.8c-7.2-3.7-10-8.1-8.6-16.6c2.3-13.8,3.2-27.9,4.6-41.9
	c1.6-0.2,3.1-0.5,4.7-0.7c2,4.1,4,8.2,5.8,12.4c11.4,26.7,34.8,42.9,61.8,42.7c35.7-0.3,58.7-28.1,47.5-61.9
	c-6-18.3-18.2-35.6-31-50.4c-17.3-20.1-38.4-36.8-56.8-55.9c-15.8-16.3-26.9-35.6-31.3-58.4c-10.3-54.2,30.9-102.1,85.9-97.8
	c16.9,1.3,33.4,7.3,50,11.8c3.3,0.9,8.2,4.9,8.3,7.6c0.2,13.3-1,26.5-1.6,39.8C473.7,703.7,472.2,703.9,470.7,704z"/>
<path class="st2" d="M836.8,633.2c59.7,0,118.3,0,178.2,0c0,22.7,0,44.5,0,67.8c35.7,0,69.9,0,105.9,0c0,19.5,0.2,37.5,0,55.5
	c-0.8,57.4-1.8,114.8-2.7,172.1c-0.3,19.1-1.6,38.3-1,57.4c0.4,12.6-3.3,16.8-16.4,16.7c-72.3-0.6-144.7-0.3-217.1-0.3
	c-15.3,0-30.6,0-46.9,0C836.8,878.7,836.8,756.6,836.8,633.2z M859.3,654.7c0,109.1,0,217,0,326.4c6.6,0,12.1,0,17.6,0
	c62.5,0,125.1,0.4,187.6-0.1c35.7-0.3,30.5,7.5,31.6-32.2c1.3-48.5,1.7-97,2.2-145.5c0.3-26,0.1-51.9,0.1-79.8
	c-35.4,0-69.6,0-105.7,0c0-24,0-46.1,0-68.7C947.5,654.7,904.2,654.7,859.3,654.7z"/>
<path class="st0" d="M669.1,518.4c-172.6,0-343.9,0-516.2,0c0-172.1,0-343.7,0-516.4c171.7,0,343.3,0,516.2,0
	C669.1,173.6,669.1,345.5,669.1,518.4z M517.1,333.6c-3.9-3.8-8.3-7.8-12.4-12.1C433.4,245.7,362,169.9,290.9,93.9
	c-6.6-7.1-13.1-11.7-21.8-7.9c6.5,111,6.5,221.2,0,331.8c12,0,25.6,0,36.6,0c0-81.5,0-161.9,0-242.7c1.7,1.5,3.7,3.2,5.5,5.1
	C385.6,259.1,459.7,338,534,416.7c3.3,3.5,8.1,5.6,14.9,10.2c3.7-116.4-3.8-228.6,5-341.9c-6.4,0-12.9,0-19.4,0
	c-6.8,0-13.5,0-17.5,0C517.1,169.1,517.1,251.1,517.1,333.6z"/>
<path class="st0" d="M859.3,654.7c44.9,0,88.2,0,133.4,0c0,22.6,0,44.7,0,68.7c36,0,70.2,0,105.7,0c0,27.9,0.2,53.8-0.1,79.8
	c-0.5,48.5-0.8,97-2.2,145.5c-1.1,39.7,4.1,31.9-31.6,32.2c-62.5,0.5-125.1,0.1-187.6,0.1c-5.5,0-11,0-17.6,0
	C859.3,871.6,859.3,763.8,859.3,654.7z"/>
<path class="st1" d="M517.1,333.6c0-82.5,0-164.4,0-248.6c4,0,10.8,0,17.5,0c6.5,0,12.9,0,19.4,0c-8.8,113.3-1.3,225.5-5,341.9
	c-6.8-4.6-11.6-6.7-14.9-10.2C459.7,338,385.5,259.1,311.3,180.2c-1.8-1.9-3.8-3.6-5.5-5.1c0,80.8,0,161.1,0,242.7
	c-11,0-24.6,0-36.6,0c6.4-110.6,6.5-220.8,0-331.8c8.7-3.8,15.1,0.8,21.8,7.9c71.1,76,142.5,151.8,213.8,227.6
	C508.8,325.8,513.2,329.8,517.1,333.6z"/>
</svg>
